<?xml version="1.0" encoding="UTF-8" standalone="no"?>
<!-- Created with Inkscape (http://www.inkscape.org/) -->

<svg
   xmlns:dc="http://purl.org/dc/elements/1.1/"
   xmlns:cc="http://creativecommons.org/ns#"
   xmlns:rdf="http://www.w3.org/1999/02/22-rdf-syntax-ns#"
   xmlns:svg="http://www.w3.org/2000/svg"
   xmlns="http://www.w3.org/2000/svg"
   xmlns:xlink="http://www.w3.org/1999/xlink"
   xmlns:sodipodi="http://sodipodi.sourceforge.net/DTD/sodipodi-0.dtd"
   xmlns:inkscape="http://www.inkscape.org/namespaces/inkscape"
   width="7086.6138"
   height="3543.3069"
   id="svg2"
   version="1.1"
   inkscape:version="0.48.3.1 r9886"
   sodipodi:docname="Buka Bareng.svg"
   inkscape:export-filename="/home/amooi/Pictures/Buka Bareng.png"
   inkscape:export-xdpi="50"
   inkscape:export-ydpi="50">
  <defs
     id="defs4">
    <linearGradient
       inkscape:collect="always"
       id="linearGradient3343">
      <stop
         style="stop-color:#ff7f2a;stop-opacity:1;"
         offset="0"
         id="stop3345" />
      <stop
         style="stop-color:#ff7f2a;stop-opacity:0;"
         offset="1"
         id="stop3347" />
    </linearGradient>
    <linearGradient
       id="linearGradient3273">
      <stop
         style="stop-color:#ffffff;stop-opacity:1;"
         offset="0"
         id="stop3275" />
      <stop
         id="stop3281"
         offset="0.18234488"
         style="stop-color:#ffffff;stop-opacity:0.49803922;" />
      <stop
         style="stop-color:#ffffff;stop-opacity:0;"
         offset="1"
         id="stop3277" />
    </linearGradient>
    <linearGradient
       inkscape:collect="always"
       xlink:href="#linearGradient5415-2"
       id="linearGradient5421-1"
       x1="-798.12909"
       y1="2481.2583"
       x2="2330.022"
       y2="3305.1335"
       gradientUnits="userSpaceOnUse" />
    <linearGradient
       inkscape:collect="always"
       id="linearGradient5415-2">
      <stop
         style="stop-color:#2ad4ff;stop-opacity:1;"
         offset="0"
         id="stop5417-5" />
      <stop
         style="stop-color:#2ad4ff;stop-opacity:0;"
         offset="1"
         id="stop5419-7" />
    </linearGradient>
    <radialGradient
       inkscape:collect="always"
       xlink:href="#linearGradient3273"
       id="radialGradient3279"
       cx="3600.6621"
       cy="2138.3975"
       fx="3600.6621"
       fy="2138.3975"
       r="1242.0889"
       gradientUnits="userSpaceOnUse"
       gradientTransform="matrix(0.47452215,0.4471546,-0.44558783,0.47285947,2844.912,-482.8165)" />
    <radialGradient
       inkscape:collect="always"
       xlink:href="#linearGradient3343"
       id="radialGradient3349"
       cx="817.01025"
       cy="-4105.6846"
       fx="817.01025"
       fy="-4105.6846"
       r="3556.9456"
       gradientTransform="matrix(1.4674289,0.77687411,-0.23416772,0.44236839,-988.01461,-650.39059)"
       gradientUnits="userSpaceOnUse" />
  </defs>
  <sodipodi:namedview
     id="base"
     pagecolor="#ffffff"
     bordercolor="#666666"
     borderopacity="1.0"
     inkscape:pageopacity="0.0"
     inkscape:pageshadow="2"
     inkscape:zoom="0.027657779"
     inkscape:cx="702.76533"
     inkscape:cy="2445.1919"
     inkscape:document-units="px"
     inkscape:current-layer="layer1"
     showgrid="false"
     inkscape:window-width="1301"
     inkscape:window-height="744"
     inkscape:window-x="65"
     inkscape:window-y="24"
     inkscape:window-maximized="1"
     units="m"
     showborder="true"
     borderlayer="false"
     showguides="true">
    <inkscape:grid
       type="xygrid"
       id="grid4333"
       empspacing="5"
       visible="true"
       enabled="true"
       snapvisiblegridlinesonly="true" />
  </sodipodi:namedview>
  <metadata
     id="metadata7">
    <rdf:RDF>
      <cc:Work
         rdf:about="">
        <dc:format>image/svg+xml</dc:format>
        <dc:type
           rdf:resource="http://purl.org/dc/dcmitype/StillImage" />
        <dc:title></dc:title>
      </cc:Work>
    </rdf:RDF>
  </metadata>
  <g
     inkscape:label="Layer 1"
     inkscape:groupmode="layer"
     id="layer1"
     transform="translate(0,2490.957)">
    <path
       inkscape:connector-curvature="0"
       id="path3259"
       d="m -18.17631,-715.39763 0,-1780.33677 3556.94571,0 3556.9455,0 0,1780.33677 0,1780.33683 -3556.9455,0 -3556.94571,0 0,-1780.33683 z"
       style="fill:#c16728" />
    <path
       sodipodi:type="star"
       style="fill:#ffffff;fill-opacity:1;stroke:none"
       id="path4694-7-9-8-4-3"
       sodipodi:sides="4"
       sodipodi:cx="3248.6506"
       sodipodi:cy="294.65631"
       sodipodi:r1="565.74316"
       sodipodi:r2="119.8114"
       sodipodi:arg1="0.7752975"
       sodipodi:arg2="2.2129942"
       inkscape:flatsided="false"
       inkscape:rounded="0"
       inkscape:randomized="0"
       d="m 3652.7117,690.63612 -475.8229,-300.03708 -324.218,308.1183 300.0371,-475.82289 -308.1183,-324.21795 475.8229,300.03709 324.2179,-308.11831 -300.037,475.8229 z"
       transform="matrix(0.61246754,0,0,0.61246754,2670.3193,-1468.3819)"
       inkscape:transform-center-x="17.817396"
       inkscape:transform-center-y="-15.681055" />
    <path
       inkscape:connector-curvature="0"
       id="path3259-3"
       d="m -2.8036018,-724.72108 0,-1780.33682 3556.9457018,0 3556.9455,0 0,1780.33682 0,1780.33678 -3556.9455,0 -3556.9457018,0 0,-1780.33678 z"
       style="fill:url(#radialGradient3349);fill-opacity:1" />
    <path
       sodipodi:type="star"
       style="fill:#ffffff;fill-opacity:1;stroke:none"
       id="path4694-7-9-8-4-3-0"
       sodipodi:sides="4"
       sodipodi:cx="3248.6506"
       sodipodi:cy="294.65631"
       sodipodi:r1="565.74316"
       sodipodi:r2="119.8114"
       sodipodi:arg1="0.7752975"
       sodipodi:arg2="2.2129942"
       inkscape:flatsided="false"
       inkscape:rounded="0"
       inkscape:randomized="0"
       d="m 3652.7117,690.63612 -475.8229,-300.03708 -324.218,308.1183 300.0371,-475.82289 -308.1183,-324.21795 475.8229,300.03709 324.2179,-308.11831 -300.037,475.8229 z"
       transform="matrix(0.61246754,0,0,0.61246754,628.72803,-220.22281)"
       inkscape:transform-center-x="17.817396"
       inkscape:transform-center-y="-15.681055" />
    <path
       sodipodi:type="star"
       style="fill:#ffffff;fill-opacity:1;stroke:none"
       id="path4694-7-9-8-4-3-0-2-3"
       sodipodi:sides="4"
       sodipodi:cx="3248.6506"
       sodipodi:cy="294.65631"
       sodipodi:r1="565.74316"
       sodipodi:r2="119.8114"
       sodipodi:arg1="0.7752975"
       sodipodi:arg2="2.2129942"
       inkscape:flatsided="false"
       inkscape:rounded="0"
       inkscape:randomized="0"
       d="m 3652.7117,690.63612 -475.8229,-300.03708 -324.218,308.1183 300.0371,-475.82289 -308.1183,-324.21795 475.8229,300.03709 324.2179,-308.11831 -300.037,475.8229 z"
       transform="matrix(0.52298553,0,0,0.52298553,-1477.5405,-1176.2127)"
       inkscape:transform-center-x="15.214188"
       inkscape:transform-center-y="-13.390122" />
    <path
       sodipodi:type="star"
       style="fill:#ffffff;fill-opacity:1;stroke:none"
       id="path4694-7-9-8-4-3-0-2-32"
       sodipodi:sides="4"
       sodipodi:cx="3248.6506"
       sodipodi:cy="294.65631"
       sodipodi:r1="565.74316"
       sodipodi:r2="119.8114"
       sodipodi:arg1="0.7752975"
       sodipodi:arg2="2.2129942"
       inkscape:flatsided="false"
       inkscape:rounded="0"
       inkscape:randomized="0"
       d="m 3652.7117,690.63612 -475.8229,-300.03708 -324.218,308.1183 300.0371,-475.82289 -308.1183,-324.21795 475.8229,300.03709 324.2179,-308.11831 -300.037,475.8229 z"
       transform="matrix(0.54535603,0,0,0.54535603,4668.6506,-1128.57)"
       inkscape:transform-center-x="15.864979"
       inkscape:transform-center-y="-13.962858" />
    <path
       inkscape:connector-curvature="0"
       id="path3257"
       d="m -27.480158,562.37459 0,-511.868511 212.857728,0 212.85751,0 58.6275,-63.983525 C 519.8513,-82.22071 622.44801,-141.76229 828.52629,-229.17109 c 68.5917,-29.09337 124.71218,-59.08008 124.71218,-66.63715 0,-7.55717 29.68801,-21.2386 65.97343,-30.40319 36.2852,-9.1647 101.1688,-40.12365 144.1857,-68.79776 43.0169,-28.67411 107.6116,-71.31087 143.5438,-94.74839 52.1206,-33.99662 65.7958,-51.24757 67.6277,-85.31145 1.263,-23.48377 7.8799,-64.02565 14.7044,-90.09301 6.8244,-26.06735 16.6291,-67.65667 21.7883,-92.4207 11.1152,-53.35397 42.6461,-60.54721 41.5507,-9.47899 -0.7058,32.89993 10.076,133.53596 19.0415,177.73214 2.1152,10.42693 -1.6129,25.63068 -8.2845,33.78615 -7.7598,9.48559 5.7667,24.92855 37.5428,42.86216 27.3201,15.41875 77.7572,48.62226 112.0823,73.78557 100.2703,73.5066 180.5457,119.71896 207.9636,119.71896 14.0257,0 38.2317,11.79165 53.7913,26.20375 15.5596,14.412 62.822,40.29609 105.028,57.52005 288.5665,117.76264 413.1715,214.962964 478.9849,373.64019 5.9464,14.3371 19.1231,26.06746 29.2815,26.06746 34.3023,0 222.375,-73.500225 290.2144,-113.417948 l 67.3568,-39.633817 83.5663,47.783935 c 70.9722,40.582464 232.9147,105.26783 263.5426,105.26783 9.1949,0 312.5446,-139.012883 399.5393,-183.092658 24.5179,-12.423221 87.2271,-46.969305 139.3538,-76.769147 82.7199,-47.289575 93.3137,-57.720505 83.2817,-82.001305 -9.1099,-22.04921 -5.3585,-27.81982 18.0864,-27.81982 23.105,0 27.1853,5.79698 18.6396,26.48085 -8.5969,20.80728 -0.9132,31.46969 35.8663,49.76499 25.7442,12.80633 75.2982,43.873336 110.1201,69.037881 34.8222,25.164441 92.2671,55.5935927 127.6559,67.6203132 35.3887,12.0267208 129.1973,54.0604438 208.4636,93.4083958 179.6845,89.19546 242.4248,154.07221 243.1474,251.42726 0.2586,34.72584 -7.2841,80.20022 -16.7595,101.05416 -9.4757,20.85385 -16.4759,59.24399 -15.556,85.31144 1.4284,40.49038 7.0953,47.80711 38.8954,50.22248 20.4724,1.55488 45.5915,-2.71071 55.8201,-9.4791 11.6286,-7.6948 23.3989,-145.87142 31.4104,-368.74118 l 12.813,-356.43508 -56.6405,-34.29328 c -59.8361,-36.2282 -58.1304,-49.82238 7.9268,-63.17334 39.2438,-7.93162 40.868,-13.17418 51.9451,-167.66844 6.2892,-87.71432 13.2277,-252.04915 15.419,-365.18855 l 3.9843,-205.70771 -48.746,-27.04756 c -62.8492,-34.8731 -61.6435,-54.0468 4.312,-68.5698 38.6241,-8.5049 55.9932,-20.002 63.8496,-42.2633 12.4893,-35.3909 -19.4197,-138.8181 -45.4683,-147.3763 -10.7775,-3.5408 -3.8161,-20.2405 17.8585,-42.8406 19.5368,-20.3708 35.5212,-43.761 35.5212,-51.9782 0,-8.2171 40.1202,-35.9474 89.1563,-61.6229 l 89.1561,-46.6826 87.5937,45.8644 c 56.0371,29.3414 91.5384,57.0428 98.5438,76.8932 6.0225,17.0661 22.7739,36.2456 37.2249,42.6213 32.7676,14.4566 33.2218,25.8903 1.6941,42.6502 -30.027,15.9622 -53.728,108.2408 -37.7397,146.9378 7.9964,19.3542 25.3949,30.0712 55.2957,34.0606 76.8549,10.2543 84.5293,35.3073 21.547,70.342 l -55.7924,31.03556 11.5243,271.04916 c 6.3384,149.07719 16.8787,312.9978 23.4231,364.26813 11.0523,86.58736 14.904,93.82622 54.1457,101.75753 59.8184,12.08997 72.7797,36.91231 29.0935,55.71752 -71.0655,30.5911 -77.9845,50.38461 -68.8262,196.8994527 4.8169,77.0591273 13.3163,223.2862473 18.8876,324.9490073 13.1001,239.04566 14.1466,242.30851 81.7324,254.8332 47.3775,8.77984 53.4758,13.91217 48.5216,40.8364 -4.4573,24.22424 1.6921,31.58012 28.8175,34.47654 54.3554,5.80389 81.4192,-24.45539 81.4192,-91.03197 0,-44.24388 6.0138,-59.535 22.2892,-56.67411 14.3785,2.52734 24.1484,28.03893 27.5281,71.8827 5.026,65.2028 7.0286,67.9649 49.2779,67.9649 24.2212,0 59.9779,-5.2917 79.4593,-11.75919 28.1924,-9.35959 42.6486,-9.35959 70.8411,0 54.3229,18.03457 88.587,14.12778 107.4536,-12.25191 11.9985,-16.77657 10.5734,-29.62863 -4.7305,-42.65572 -28.2326,-24.03212 -58.209,-23.64417 -90.9125,1.17662 -44.6776,33.90844 -88.5155,19.24354 -112.2388,-37.54697 -20.7565,-49.68855 -19.9916,-51.71122 37.6054,-99.43902 32.3358,-26.79514 75.2273,-56.56799 95.3144,-66.16184 35.9253,-17.15834 37.4164,-16.78666 91.2923,22.75011 30.1239,22.10639 54.7705,43.81885 54.7705,48.25018 0,4.43123 12.7497,8.05679 28.3323,8.05679 23.6876,0 27.3416,-10.48956 22.2891,-63.98353 -4.9096,-51.98276 -1.0272,-63.98362 20.7036,-63.98362 19.6984,0 28.1682,13.12926 32.1401,49.82071 5.0832,46.95498 7.7919,49.50086 47.0907,44.25748 22.9336,-3.05981 47.0584,-0.95217 53.6107,4.6837 16.3359,14.05125 76.3294,12.93696 86.2335,-1.60164 6.4576,-9.47911 15.6219,-9.47911 45.8222,0 48.1609,15.1164 86.5298,15.1164 96.8277,0 6.4575,-9.47911 15.622,-9.47911 45.8222,0 54.3657,17.06397 56.0653,16.14355 56.0653,-30.36096 0,-23.21532 8.8366,-52.51926 19.6364,-65.11997 l 19.6364,-22.91041 51.4799,29.57373 c 28.3137,16.26542 73.6842,43.72758 100.823,61.02694 43.8528,27.95342 54.6052,30.3898 96.6291,21.89623 32.9391,-6.65745 51.1812,-19.07644 60.1248,-40.9323 7.0614,-17.25651 20.7206,-42.03939 30.3539,-55.07307 16.5681,-22.41666 19.3096,-20.87948 50.7198,28.43718 18.2627,28.67411 33.4311,63.86506 33.707,78.20217 0.7312,37.96778 66.9624,34.67857 143.1522,-7.10927 33.2692,-18.24719 70.9515,-33.17672 83.7386,-33.17672 18.6745,0 23.2489,66.21056 23.2489,336.50619 l 0,336.50619 -3566.2495,0 -3566.249846,0 0,-511.86861 z M 3057.6239,623.9885 c 10.7163,-44.09955 -5.8549,-106.27571 -32.0335,-120.19221 -9.9927,-5.31199 -34.7746,-6.85637 -55.0708,-3.432 -44.5096,7.50978 -82.6996,68.50593 -54.2866,86.70531 12.6752,8.11901 11.6437,17.41999 -3.3476,30.1809 -36.5726,31.13149 -8.0234,50.96601 68.5144,47.60056 63.5563,-2.79454 67.4853,-4.90076 76.2241,-40.86256 z m 3004.837,-32.22251 c -6.5388,-10.95178 -18.5134,-19.91231 -26.6106,-19.91231 -26.4375,0 -37.4925,30.51424 -16.0344,44.25892 28.3358,18.15005 57.9299,1.2545 42.645,-24.34661 z m 133.1646,8.52488 c 0,-10.42703 -8.0241,-18.95809 -17.8312,-18.95809 -9.8072,0 -17.8313,8.53106 -17.8313,18.95809 0,10.42692 8.0241,18.95808 17.8313,18.95808 9.8071,0 17.8312,-8.53116 17.8312,-18.95808 z M 2501.7716,586.64962 c 3.3715,-9.24526 -2.6465,-21.47522 -13.3734,-27.17764 -29.1292,-15.48498 -61.4021,5.96211 -46.5087,30.90735 14.0033,23.4542 50.8048,21.16205 59.8821,-3.72971 z m 270.2542,-52.15264 c 0,-10.11932 -8.7232,-21.26465 -19.3848,-24.76753 -27.2656,-8.95805 -58.8207,10.48286 -45.9519,28.31037 15.2851,21.17453 65.3367,18.46043 65.3367,-3.54284 z M 4889.5826,-1148.5934 c 5.2155,-21.7111 -32.095,-64.9549 -56.7646,-65.7919 -22.4358,-0.7613 -47.7523,52.171 -35.1315,73.4538 13.881,23.4077 85.8748,17.4052 91.8961,-7.6619 z m 125.5083,-9.5568 c 2.8838,-15.5976 -6.994,-36.8906 -21.9502,-47.3175 -23.4738,-16.3649 -29.6418,-17.0131 -45.0906,-4.7395 -20.5517,16.3276 -24.5284,69.4377 -5.9392,79.3197 27.8482,14.8041 67.9736,-0.1853 72.98,-27.2627 z"
       style="fill:#0f0b09" />
    <path
       sodipodi:type="star"
       style="fill:#d40055;fill-opacity:1;stroke:#ffffff;stroke-width:50;stroke-linecap:butt;stroke-linejoin:round;stroke-miterlimit:4;stroke-opacity:1;stroke-dasharray:none"
       id="path4483-0"
       sodipodi:sides="5"
       sodipodi:cx="2937.1428"
       sodipodi:cy="1749.0212"
       sodipodi:r1="410.55463"
       sodipodi:r2="205.27731"
       sodipodi:arg1="0.60730523"
       sodipodi:arg2="1.2356238"
       inkscape:flatsided="false"
       inkscape:rounded="0"
       inkscape:randomized="0"
       d="m 3274.2857,1983.307 -269.6206,-40.4314 -186.1584,199.1858 -44.8648,-268.9183 -246.9631,-115.4954 241.8926,-125.7693 33.5268,-270.5659 194.3627,191.1887 267.6838,-51.7236 -121.7699,243.9304 z"
       transform="translate(-2422.3574,-3659.4614)"
       inkscape:transform-center-x="36.660566"
       inkscape:transform-center-y="2.6657274" />
    <text
       xml:space="preserve"
       style="font-size:437.30133057px;font-style:normal;font-weight:bold;line-height:75%;letter-spacing:-12.36119938px;word-spacing:0px;fill:#d40055;fill-opacity:1;stroke:#d40055;stroke-width:100;stroke-linecap:butt;stroke-linejoin:round;stroke-miterlimit:4;stroke-opacity:1;stroke-dasharray:none;font-family:Sans;-inkscape-font-specification:Sans Bold"
       x="271.28006"
       y="-1576.1559"
       id="text4278-7"
       sodipodi:linespacing="75%"><tspan
         sodipodi:role="line"
         x="271.28006"
         y="-1576.1559"
         id="tspan4303">Buka Puasa</tspan></text>
    <text
       xml:space="preserve"
       style="font-size:437.30133057px;font-style:normal;font-weight:bold;line-height:75%;letter-spacing:-12.36119938px;word-spacing:0px;fill:#ffffff;fill-opacity:1;stroke:none;font-family:Sans;-inkscape-font-specification:Sans Bold"
       x="247.2903"
       y="-1637.6827"
       id="text4278-7-2"
       sodipodi:linespacing="75%"><tspan
         sodipodi:role="line"
         x="247.2903"
         y="-1637.6827"
         id="tspan4303-2">Buka Puasa</tspan></text>
    <path
       sodipodi:type="star"
       style="fill:#ccff00;fill-opacity:1;stroke:#e5ff80;stroke-width:80;stroke-linecap:butt;stroke-linejoin:round;stroke-miterlimit:4;stroke-opacity:1;stroke-dasharray:none"
       id="path4483"
       sodipodi:sides="5"
       sodipodi:cx="2937.1428"
       sodipodi:cy="1749.0212"
       sodipodi:r1="410.55463"
       sodipodi:r2="205.27731"
       sodipodi:arg1="0.60730523"
       sodipodi:arg2="1.2356238"
       inkscape:flatsided="false"
       inkscape:rounded="0"
       inkscape:randomized="0"
       d="m 3274.2857,1983.307 -269.6206,-40.4314 -186.1584,199.1858 -44.8648,-268.9183 -246.9631,-115.4954 241.8926,-125.7693 33.5268,-270.5659 194.3627,191.1887 267.6838,-51.7236 -121.7699,243.9304 z"
       transform="matrix(0.70660378,-0.70760942,0.70760942,0.70660378,-1631.687,969.14611)"
       inkscape:transform-center-x="-17.119853"
       inkscape:transform-center-y="-22.563842" />
    <path
       sodipodi:type="star"
       style="fill:#ffffff;fill-opacity:1;stroke:#ffffff;stroke-width:50;stroke-linecap:round;stroke-linejoin:round;stroke-miterlimit:4;stroke-opacity:1;stroke-dasharray:none"
       id="path4938"
       sodipodi:sides="5"
       sodipodi:cx="1451.4286"
       sodipodi:cy="-788.1217"
       sodipodi:r1="1104.0852"
       sodipodi:r2="552.0426"
       sodipodi:arg1="0.63107939"
       sodipodi:arg2="1.2593979"
       inkscape:flatsided="false"
       inkscape:rounded="0"
       inkscape:randomized="0"
       d="M 2342.8572,-136.69311 1620.569,-262.62902 1107.3498,260.97977 1003.9226,-464.87346 347.34759,-791.16992 1005.7143,-1113.836 l 107.4335,-725.2711 510.3202,526.4347 722.9726,-121.9458 -342.9715,648.02059 z"
       transform="matrix(0.49773763,-0.04152479,0.04152479,0.49773763,5894.4714,-1501.8522)"
       inkscape:transform-center-x="39.46067"
       inkscape:transform-center-y="13.698483" />
    <g
       id="g3927"
       transform="matrix(0.80193615,0,0,0.80193615,1294.0587,-684.22072)">
      <text
         sodipodi:linespacing="125%"
         id="text4581-4-6"
         y="-1434.9207"
         x="4865.1426"
         style="font-size:482.2013855px;font-style:normal;font-weight:normal;line-height:125%;letter-spacing:0px;word-spacing:0px;fill:#d7f4ee;fill-opacity:1;stroke:#d7f4ee;stroke-width:100;stroke-linecap:round;stroke-linejoin:round;stroke-miterlimit:4;stroke-opacity:1;stroke-dasharray:none;font-family:Sans"
         xml:space="preserve"><tspan
           style="font-style:normal;font-variant:normal;font-weight:normal;font-stretch:normal;fill:#d7f4ee;stroke:#d7f4ee;stroke-width:100;stroke-linecap:round;stroke-linejoin:round;stroke-miterlimit:4;stroke-opacity:1;stroke-dasharray:none;font-family:Mallige;-inkscape-font-specification:Mallige"
           y="-1434.9207"
           x="4865.1426"
           id="tspan4583-7-7"
           sodipodi:role="line"><tspan
             style="font-style:normal;font-variant:normal;font-weight:bold;font-stretch:normal;fill:#d7f4ee;stroke:#d7f4ee;stroke-width:100;stroke-linecap:round;stroke-linejoin:round;stroke-miterlimit:4;stroke-opacity:1;stroke-dasharray:none;font-family:Nanum Brush Script;-inkscape-font-specification:Nanum Brush Script Bold"
             id="tspan4612-9">13 Agustus</tspan></tspan></text>
      <text
         sodipodi:linespacing="125%"
         id="text4581-4"
         y="-1440.9268"
         x="4857.1392"
         style="font-size:482.2013855px;font-style:normal;font-weight:normal;line-height:125%;letter-spacing:0px;word-spacing:0px;fill:#2ad4ff;fill-opacity:1;stroke:none;font-family:Sans"
         xml:space="preserve"><tspan
           style="font-style:normal;font-variant:normal;font-weight:normal;font-stretch:normal;font-family:Mallige;-inkscape-font-specification:Mallige"
           y="-1440.9268"
           x="4857.1392"
           id="tspan4583-7"
           sodipodi:role="line"><tspan
             style="font-style:normal;font-variant:normal;font-weight:bold;font-stretch:normal;font-family:Nanum Brush Script;-inkscape-font-specification:Nanum Brush Script Bold"
             id="tspan4612">13 Agustus</tspan></tspan></text>
      <g
         transform="translate(-310.01978,211.69403)"
         id="g4688">
        <text
           xml:space="preserve"
           style="font-size:482.2013855px;font-style:normal;font-weight:normal;line-height:125%;letter-spacing:0px;word-spacing:0px;fill:#d5fff6;fill-opacity:1;stroke:#d5fff6;stroke-width:100;stroke-linejoin:round;stroke-miterlimit:4;stroke-dasharray:none;font-family:Sans"
           x="5090.416"
           y="-1219.7743"
           id="text4581-4-1-3"
           sodipodi:linespacing="125%"><tspan
             sodipodi:role="line"
             id="tspan4583-7-1-6"
             x="5090.416"
             y="-1219.7743"
             style="font-style:normal;font-variant:normal;font-weight:bold;font-stretch:normal;letter-spacing:-20px;fill:#d5fff6;stroke:#d5fff6;stroke-width:100;stroke-linejoin:round;stroke-miterlimit:4;stroke-dasharray:none;font-family:Nanum Brush Script;-inkscape-font-specification:Nanum Brush Script Bold">24 Ramadhan</tspan></text>
        <text
           xml:space="preserve"
           style="font-size:482.2013855px;font-style:normal;font-weight:normal;line-height:125%;letter-spacing:0px;word-spacing:0px;fill:#2ad4ff;fill-opacity:1;stroke:none;font-family:Sans"
           x="5094.3496"
           y="-1226.3915"
           id="text4581-4-1"
           sodipodi:linespacing="125%"><tspan
             sodipodi:role="line"
             id="tspan4583-7-1"
             x="5094.3496"
             y="-1226.3915"
             style="font-style:normal;font-variant:normal;font-weight:bold;font-stretch:normal;letter-spacing:-20px;font-family:Nanum Brush Script;-inkscape-font-specification:Nanum Brush Script Bold">24 Ramadhan</tspan></text>
      </g>
      <path
         transform="matrix(0.0820839,0,0,0.0820839,5547.9351,-867.26246)"
         d="m 2337.1429,1106.1641 c 0,686.411 -556.4461,1242.8571 -1242.8571,1242.8571 -686.4111,0 -1242.85721,-556.4461 -1242.85721,-1242.8571 0,-686.4111 556.44611,-1242.85722 1242.85721,-1242.85722 686.411,0 1242.8571,556.44612 1242.8571,1242.85722 z"
         sodipodi:ry="1242.8572"
         sodipodi:rx="1242.8572"
         sodipodi:cy="1106.1641"
         sodipodi:cx="1094.2858"
         id="path3198-4-8-2-5-0-7-5-3-3-9"
         style="fill:#2ad4ff;fill-rule:evenodd;stroke:none"
         sodipodi:type="arc" />
      <path
         transform="matrix(0.24788824,0,0,0.24788824,5754.3965,-885.00416)"
         d="m 2337.1429,1106.1641 c 0,686.411 -556.4461,1242.8571 -1242.8571,1242.8571 -686.4111,0 -1242.85721,-556.4461 -1242.85721,-1242.8571 0,-686.4111 556.44611,-1242.85722 1242.85721,-1242.85722 686.411,0 1242.8571,556.44612 1242.8571,1242.85722 z"
         sodipodi:ry="1242.8572"
         sodipodi:rx="1242.8572"
         sodipodi:cy="1106.1641"
         sodipodi:cx="1094.2858"
         id="path3198-4-8-2-5-0-7-5-3-3-9-8"
         style="fill:#2ad4ff;fill-rule:evenodd;stroke:none"
         sodipodi:type="arc" />
      <path
         transform="matrix(0.04957324,0,0,0.04957324,5401.6836,-899.99076)"
         d="m 2337.1429,1106.1641 c 0,686.411 -556.4461,1242.8571 -1242.8571,1242.8571 -686.4111,0 -1242.85721,-556.4461 -1242.85721,-1242.8571 0,-686.4111 556.44611,-1242.85722 1242.85721,-1242.85722 686.411,0 1242.8571,556.44612 1242.8571,1242.85722 z"
         sodipodi:ry="1242.8572"
         sodipodi:rx="1242.8572"
         sodipodi:cy="1106.1641"
         sodipodi:cx="1094.2858"
         id="path3198-4-8-2-5-0-7-5-3-3-9-4"
         style="fill:#2ad4ff;fill-rule:evenodd;stroke:none"
         sodipodi:type="arc" />
      <path
         transform="matrix(0.18286693,0,0,0.18286693,6407.3961,-926.21716)"
         d="m 2337.1429,1106.1641 c 0,686.411 -556.4461,1242.8571 -1242.8571,1242.8571 -686.4111,0 -1242.85721,-556.4461 -1242.85721,-1242.8571 0,-686.4111 556.44611,-1242.85722 1242.85721,-1242.85722 686.411,0 1242.8571,556.44612 1242.8571,1242.85722 z"
         sodipodi:ry="1242.8572"
         sodipodi:rx="1242.8572"
         sodipodi:cy="1106.1641"
         sodipodi:cx="1094.2858"
         id="path3198-4-8-2-5-0-7-5-3-3-9-8-5"
         style="fill:#2ad4ff;fill-rule:evenodd;stroke:none"
         sodipodi:type="arc" />
      <path
         transform="matrix(0.22838185,0,0,0.22838185,6597.4913,-1733.2576)"
         d="m 2337.1429,1106.1641 c 0,686.411 -556.4461,1242.8571 -1242.8571,1242.8571 -686.4111,0 -1242.85721,-556.4461 -1242.85721,-1242.8571 0,-686.4111 556.44611,-1242.85722 1242.85721,-1242.85722 686.411,0 1242.8571,556.44612 1242.8571,1242.85722 z"
         sodipodi:ry="1242.8572"
         sodipodi:rx="1242.8572"
         sodipodi:cy="1106.1641"
         sodipodi:cx="1094.2858"
         id="path3198-4-8-2-5-0-7-5-3-3-9-8-5-3"
         style="fill:#2ad4ff;fill-rule:evenodd;stroke:none"
         sodipodi:type="arc" />
    </g>
    <text
       xml:space="preserve"
       style="font-size:428.66433716px;font-style:normal;font-weight:normal;line-height:72.00000286%;letter-spacing:0px;word-spacing:0px;fill:#2aff80;fill-opacity:1;stroke:#000000;stroke-width:83.87268066;stroke-linejoin:round;stroke-miterlimit:4;stroke-opacity:1;stroke-dasharray:none;font-family:Sans"
       x="317.64526"
       y="-1139.1039"
       id="text4363-7"
       sodipodi:linespacing="72.000003%"><tspan
         sodipodi:role="line"
         x="317.64526"
         y="-1139.1039"
         style="font-style:normal;font-variant:normal;font-weight:500;font-stretch:normal;text-align:start;line-height:72.00000286%;letter-spacing:-12.5809021px;text-anchor:start;fill:#2aff80;stroke:#000000;stroke-width:83.87268066;stroke-linejoin:round;stroke-miterlimit:4;stroke-opacity:1;stroke-dasharray:none;font-family:Keter YG;-inkscape-font-specification:Keter YG Medium"
         id="tspan4367-1">Merajut</tspan><tspan
         sodipodi:role="line"
         x="317.64526"
         y="-830.46539"
         style="font-style:normal;font-variant:normal;font-weight:500;font-stretch:normal;text-align:start;line-height:72.00000286%;letter-spacing:-12.5809021px;text-anchor:start;fill:#2aff80;stroke:#000000;stroke-width:83.87268066;stroke-linejoin:round;stroke-miterlimit:4;stroke-opacity:1;stroke-dasharray:none;font-family:Keter YG;-inkscape-font-specification:Keter YG Medium"
         id="tspan3972">Ukhuwah</tspan><tspan
         sodipodi:role="line"
         x="317.64526"
         y="-521.82721"
         style="font-style:normal;font-variant:normal;font-weight:500;font-stretch:normal;text-align:start;line-height:72.00000286%;letter-spacing:-12.5809021px;text-anchor:start;fill:#2aff80;stroke:#000000;stroke-width:83.87268066;stroke-linejoin:round;stroke-miterlimit:4;stroke-opacity:1;stroke-dasharray:none;font-family:Keter YG;-inkscape-font-specification:Keter YG Medium"
         id="tspan3976">Islamiyah</tspan></text>
    <text
       xml:space="preserve"
       style="font-size:428.66433716px;font-style:normal;font-weight:normal;line-height:72.00000286%;letter-spacing:0px;word-spacing:0px;fill:#2aff80;fill-opacity:1;stroke:none;font-family:Sans"
       x="345.46362"
       y="-1153.3641"
       id="text4363-7-2"
       sodipodi:linespacing="72.000003%"><tspan
         sodipodi:role="line"
         x="345.46362"
         y="-1153.3641"
         style="font-style:normal;font-variant:normal;font-weight:500;font-stretch:normal;text-align:start;line-height:72.00000286%;letter-spacing:-12.5809021px;text-anchor:start;fill:#2aff80;stroke:none;font-family:Keter YG;-inkscape-font-specification:Keter YG Medium"
         id="tspan4367-1-4">Merajut</tspan><tspan
         sodipodi:role="line"
         x="345.46362"
         y="-844.72565"
         style="font-style:normal;font-variant:normal;font-weight:500;font-stretch:normal;text-align:start;line-height:72.00000286%;letter-spacing:-12.5809021px;text-anchor:start;fill:#2aff80;stroke:none;font-family:Keter YG;-inkscape-font-specification:Keter YG Medium"
         id="tspan3963">Ukhuwah</tspan><tspan
         sodipodi:role="line"
         x="345.46362"
         y="-536.08746"
         style="font-style:normal;font-variant:normal;font-weight:500;font-stretch:normal;text-align:start;line-height:72.00000286%;letter-spacing:-12.5809021px;text-anchor:start;fill:#2aff80;stroke:none;font-family:Keter YG;-inkscape-font-specification:Keter YG Medium"
         id="tspan3965">Islamiyah</tspan></text>
    <text
       xml:space="preserve"
       style="font-size:272.71084595px;font-style:normal;font-weight:normal;line-height:125%;letter-spacing:0px;word-spacing:0px;fill:#ffffff;fill-opacity:1;stroke:none;font-family:Sans"
       x="4079.4731"
       y="422.49622"
       id="text4075"
       sodipodi:linespacing="125%"><tspan
         sodipodi:role="line"
         id="tspan4077"
         x="4079.4731"
         y="422.49622"
         style="font-size:200px;font-weight:bold;fill:#ffffff;-inkscape-font-specification:Sans Bold">Bersama:</tspan></text>
    <text
       xml:space="preserve"
       style="font-size:144px;font-style:normal;font-weight:normal;line-height:100%;letter-spacing:0px;word-spacing:0px;fill:#ffffff;fill-opacity:1;stroke:none;font-family:Sans"
       x="3930.3071"
       y="702.69031"
       id="text4075-7"
       sodipodi:linespacing="100%"><tspan
         sodipodi:role="line"
         id="tspan4077-5"
         x="3930.3071"
         y="702.69031"
         style="font-size:200px;font-weight:bold;line-height:100%;-inkscape-font-specification:Sans Bold">Masyarakat</tspan><tspan
         sodipodi:role="line"
         x="3930.3071"
         y="902.69031"
         style="font-size:200px;font-weight:bold;line-height:100%;-inkscape-font-specification:Sans Bold"
         id="tspan4190">Dondong</tspan></text>
    <text
       xml:space="preserve"
       style="font-size:144px;font-style:normal;font-weight:normal;line-height:125%;letter-spacing:0px;word-spacing:0px;fill:#ffffff;fill-opacity:1;stroke:none;font-family:Sans"
       x="5887.1772"
       y="929.74982"
       id="text4075-3"
       sodipodi:linespacing="125%"><tspan
         sodipodi:role="line"
         id="tspan4077-1"
         x="5887.1772"
         y="929.74982"
         style="font-size:200px;font-weight:bold;fill:#ffffff;-inkscape-font-specification:Sans Bold">KKN UIN</tspan></text>
    <text
       xml:space="preserve"
       style="font-size:144px;font-style:normal;font-weight:normal;line-height:125%;letter-spacing:0px;word-spacing:0px;fill:#ffffff;fill-opacity:1;stroke:none;font-family:Sans"
       x="5192.7266"
       y="936.32861"
       id="text4075-3-7"
       sodipodi:linespacing="125%"><tspan
         sodipodi:role="line"
         id="tspan4077-1-3"
         x="5192.7266"
         y="936.32861"
         style="font-size:200px;font-weight:bold;fill:#ffffff;-inkscape-font-specification:Sans Bold">IPPD</tspan></text>
    <path
       sodipodi:type="arc"
       style="fill:#ccff00;fill-rule:evenodd;stroke:none"
       id="path3198-4-8-2-5-0-7-5-3-3-6-8-5-1-3"
       sodipodi:cx="1094.2858"
       sodipodi:cy="1106.1641"
       sodipodi:rx="1242.8572"
       sodipodi:ry="1242.8572"
       d="m 2337.1429,1106.1641 a 1242.8572,1242.8572 0 1 1 -2485.71431,0 1242.8572,1242.8572 0 1 1 2485.71431,0 z"
       transform="matrix(0.21054884,0,0,0.21054884,163.50809,15.650777)" />
    <text
       xml:space="preserve"
       style="font-size:511.08932495000004792px;font-style:normal;font-weight:500;line-height:72.00000285999999505%;letter-spacing:0px;word-spacing:0px;fill:#338000;fill-opacity:1;stroke:#338000;stroke-width:80;stroke-miterlimit:4;stroke-opacity:1;stroke-dasharray:none;font-family:Bandal;-inkscape-font-specification:Bandal Medium;font-stretch:normal;font-variant:normal"
       x="2132.468"
       y="543.87073"
       id="text4363-0"
       sodipodi:linespacing="72.000003%"><tspan
         sodipodi:role="line"
         id="tspan4365-3"
         x="2117.468"
         y="543.87073"
         style="font-style:normal;font-variant:normal;font-weight:500;font-stretch:normal;text-align:end;line-height:72.00000285999999505%;letter-spacing:-15px;text-anchor:end;fill:#338000;stroke:#338000;stroke-width:80;stroke-miterlimit:4;stroke-opacity:1;stroke-dasharray:none;font-family:Bandal;-inkscape-font-specification:Bandal Medium">Masjid</tspan><tspan
         sodipodi:role="line"
         x="2117.468"
         y="911.8551"
         style="font-style:normal;font-variant:normal;font-weight:500;font-stretch:normal;text-align:end;line-height:72.00000285999999505%;letter-spacing:-15px;text-anchor:end;fill:#338000;stroke:#338000;stroke-width:80;stroke-miterlimit:4;stroke-opacity:1;stroke-dasharray:none;font-family:Bandal;-inkscape-font-specification:Bandal Medium"
         id="tspan4367-7">At Ta'lim</tspan></text>
    <text
       xml:space="preserve"
       style="font-size:511.08932495px;font-style:normal;font-weight:normal;line-height:72.00000286%;letter-spacing:0px;word-spacing:0px;fill:#ccffaa;fill-opacity:1;stroke:none;font-family:Sans"
       x="2141.2554"
       y="540.0448"
       id="text4363"
       sodipodi:linespacing="72.000003%"><tspan
         sodipodi:role="line"
         id="tspan4365"
         x="2126.2554"
         y="540.0448"
         style="font-style:normal;font-variant:normal;font-weight:500;font-stretch:normal;text-align:end;line-height:72.00000286%;letter-spacing:-15px;text-anchor:end;fill:#ccffaa;stroke:none;font-family:Bandal;-inkscape-font-specification:Bandal Medium">Masjid</tspan><tspan
         sodipodi:role="line"
         x="2126.2554"
         y="908.02911"
         style="font-style:normal;font-variant:normal;font-weight:500;font-stretch:normal;text-align:end;line-height:72.00000286%;letter-spacing:-15px;text-anchor:end;fill:#ccffaa;stroke:none;font-family:Bandal;-inkscape-font-specification:Bandal Medium"
         id="tspan4367">At Ta'lim</tspan></text>
    <text
       xml:space="preserve"
       style="font-size:272.71084595px;font-style:normal;font-weight:normal;line-height:125%;letter-spacing:0px;word-spacing:0px;fill:#ffffff;fill-opacity:1;stroke:none;font-family:Sans"
       x="5401.5181"
       y="702.78162"
       id="text4075-0"
       sodipodi:linespacing="125%"><tspan
         sodipodi:role="line"
         id="tspan4077-7"
         x="5401.5181"
         y="702.78162"
         style="font-size:200px;font-weight:bold;fill:#ffffff;-inkscape-font-specification:Sans Bold">LPPM BIMA</tspan></text>
    <path
       sodipodi:type="star"
       style="fill:#ffffff;fill-opacity:1;stroke:none"
       id="path4694-7-9-8-4-3-0-2"
       sodipodi:sides="4"
       sodipodi:cx="3248.6506"
       sodipodi:cy="294.65631"
       sodipodi:r1="565.74316"
       sodipodi:r2="119.8114"
       sodipodi:arg1="0.7752975"
       sodipodi:arg2="2.2129942"
       inkscape:flatsided="false"
       inkscape:rounded="0"
       inkscape:randomized="0"
       d="m 3652.7117,690.63612 -475.8229,-300.03708 -324.218,308.1183 300.0371,-475.82289 -308.1183,-324.21795 475.8229,300.03709 324.2179,-308.11831 -300.037,475.8229 z"
       transform="matrix(0.22098375,0,0,0.22098375,732.86825,-2208.0679)"
       inkscape:transform-center-x="6.4286552"
       inkscape:transform-center-y="-5.6578908" />
    <path
       sodipodi:type="star"
       style="fill:#ffffff;fill-opacity:1;stroke:none"
       id="path4694-7-9-8-4-3-0-2-9"
       sodipodi:sides="4"
       sodipodi:cx="3248.6506"
       sodipodi:cy="294.65631"
       sodipodi:r1="565.74316"
       sodipodi:r2="119.8114"
       sodipodi:arg1="0.7752975"
       sodipodi:arg2="2.2129942"
       inkscape:flatsided="false"
       inkscape:rounded="0"
       inkscape:randomized="0"
       d="m 3652.7117,690.63612 -475.8229,-300.03708 -324.218,308.1183 300.0371,-475.82289 -308.1183,-324.21795 475.8229,300.03709 324.2179,-308.11831 -300.037,475.8229 z"
       transform="matrix(0.62365279,0,0,0.62365279,1318.4178,-2060.065)"
       inkscape:transform-center-x="18.142732"
       inkscape:transform-center-y="-15.967499" />
    <path
       sodipodi:type="star"
       style="fill:#ffffff;fill-opacity:1;stroke:none"
       id="path4694-7-9-8-4-3-0-2-0"
       sodipodi:sides="4"
       sodipodi:cx="3248.6506"
       sodipodi:cy="294.65631"
       sodipodi:r1="565.74316"
       sodipodi:r2="119.8114"
       sodipodi:arg1="0.7752975"
       sodipodi:arg2="2.2129942"
       inkscape:flatsided="false"
       inkscape:rounded="0"
       inkscape:randomized="0"
       d="m 3652.7117,690.63612 -475.8229,-300.03708 -324.218,308.1183 300.0371,-475.82289 -308.1183,-324.21795 475.8229,300.03709 324.2179,-308.11831 -300.037,475.8229 z"
       transform="matrix(0.35520676,0,0,0.35520676,1431.2251,-1077.0608)"
       inkscape:transform-center-x="10.33337"
       inkscape:transform-center-y="-9.0944613" />
    <path
       sodipodi:type="star"
       style="fill:#ffffff;fill-opacity:1;stroke:none"
       id="path4694-7-9-8-4-3-0-2-5"
       sodipodi:sides="4"
       sodipodi:cx="3248.6506"
       sodipodi:cy="294.65631"
       sodipodi:r1="565.74316"
       sodipodi:r2="119.8114"
       sodipodi:arg1="0.7752975"
       sodipodi:arg2="2.2129942"
       inkscape:flatsided="false"
       inkscape:rounded="0"
       inkscape:randomized="0"
       d="m 3652.7117,690.63612 -475.8229,-300.03708 -324.218,308.1183 300.0371,-475.82289 -308.1183,-324.21795 475.8229,300.03709 324.2179,-308.11831 -300.037,475.8229 z"
       transform="matrix(0.53417078,0,0,0.53417078,1681.426,-930.93464)"
       inkscape:transform-center-x="15.539585"
       inkscape:transform-center-y="-13.676481" />
    <path
       sodipodi:type="star"
       style="fill:#ffffff;fill-opacity:1;stroke:none"
       id="path4694-7-9-8-4-3-0-2-53"
       sodipodi:sides="4"
       sodipodi:cx="3248.6506"
       sodipodi:cy="294.65631"
       sodipodi:r1="565.74316"
       sodipodi:r2="119.8114"
       sodipodi:arg1="0.7752975"
       sodipodi:arg2="2.2129942"
       inkscape:flatsided="false"
       inkscape:rounded="0"
       inkscape:randomized="0"
       d="m 3652.7117,690.63612 -475.8229,-300.03708 -324.218,308.1183 300.0371,-475.82289 -308.1183,-324.21795 475.8229,300.03709 324.2179,-308.11831 -300.037,475.8229 z"
       transform="matrix(0.47824453,0,0,0.47824453,2726.3399,-2130.2076)"
       inkscape:transform-center-x="13.912693"
       inkscape:transform-center-y="-12.244582" />
    <path
       sodipodi:type="star"
       style="fill:#ffffff;fill-opacity:1;stroke:none"
       id="path4694-7-9-8-4-3-0-2-8"
       sodipodi:sides="4"
       sodipodi:cx="3248.6506"
       sodipodi:cy="294.65631"
       sodipodi:r1="565.74316"
       sodipodi:r2="119.8114"
       sodipodi:arg1="0.7752975"
       sodipodi:arg2="2.2129942"
       inkscape:flatsided="false"
       inkscape:rounded="0"
       inkscape:randomized="0"
       d="m 3652.7117,690.63612 -475.8229,-300.03708 -324.218,308.1183 300.0371,-475.82289 -308.1183,-324.21795 475.8229,300.03709 324.2179,-308.11831 -300.037,475.8229 z"
       transform="matrix(0.22098375,0,0,0.22098375,3232.165,-1362.9169)"
       inkscape:transform-center-x="6.4286552"
       inkscape:transform-center-y="-5.6578908" />
    <path
       sodipodi:type="star"
       style="fill:#ffffff;fill-opacity:1;stroke:none"
       id="path4694-7-9-8-4-3-0-2-94"
       sodipodi:sides="4"
       sodipodi:cx="3248.6506"
       sodipodi:cy="294.65631"
       sodipodi:r1="565.74316"
       sodipodi:r2="119.8114"
       sodipodi:arg1="0.7752975"
       sodipodi:arg2="2.2129942"
       inkscape:flatsided="false"
       inkscape:rounded="0"
       inkscape:randomized="0"
       d="m 3652.7117,690.63612 -475.8229,-300.03708 -324.218,308.1183 300.0371,-475.82289 -308.1183,-324.21795 475.8229,300.03709 324.2179,-308.11831 -300.037,475.8229 z"
       transform="matrix(0.22098375,0,0,0.22098375,3611.8051,-666.91022)"
       inkscape:transform-center-x="6.4286552"
       inkscape:transform-center-y="-5.6578908" />
    <path
       sodipodi:type="star"
       style="fill:#ffffff;fill-opacity:1;stroke:none"
       id="path4694-7-9-8-4-3-0-2-4"
       sodipodi:sides="4"
       sodipodi:cx="3248.6506"
       sodipodi:cy="294.65631"
       sodipodi:r1="565.74316"
       sodipodi:r2="119.8114"
       sodipodi:arg1="0.7752975"
       sodipodi:arg2="2.2129942"
       inkscape:flatsided="false"
       inkscape:rounded="0"
       inkscape:randomized="0"
       d="m 3652.7117,690.63612 -475.8229,-300.03708 -324.218,308.1183 300.0371,-475.82289 -308.1183,-324.21795 475.8229,300.03709 324.2179,-308.11831 -300.037,475.8229 z"
       transform="matrix(0.22098375,0,0,0.22098375,2355.3773,-1408.1121)"
       inkscape:transform-center-x="6.4286552"
       inkscape:transform-center-y="-5.6578908" />
    <path
       sodipodi:type="star"
       style="fill:#ffffff;fill-opacity:1;stroke:none"
       id="path4694-7-9-8-4-3-0-2-48"
       sodipodi:sides="4"
       sodipodi:cx="3248.6506"
       sodipodi:cy="294.65631"
       sodipodi:r1="565.74316"
       sodipodi:r2="119.8114"
       sodipodi:arg1="0.7752975"
       sodipodi:arg2="2.2129942"
       inkscape:flatsided="false"
       inkscape:rounded="0"
       inkscape:randomized="0"
       d="m 3652.7117,690.63612 -475.8229,-300.03708 -324.218,308.1183 300.0371,-475.82289 -308.1183,-324.21795 475.8229,300.03709 324.2179,-308.11831 -300.037,475.8229 z"
       transform="matrix(0.22098375,0,0,0.22098375,4759.7642,-1380.995)"
       inkscape:transform-center-x="6.4286552"
       inkscape:transform-center-y="-5.6578908" />
    <path
       sodipodi:type="star"
       style="fill:#ffffff;fill-opacity:1;stroke:none"
       id="path4694-7-9-8-4-3-0-2-93"
       sodipodi:sides="4"
       sodipodi:cx="3248.6506"
       sodipodi:cy="294.65631"
       sodipodi:r1="565.74316"
       sodipodi:r2="119.8114"
       sodipodi:arg1="0.7752975"
       sodipodi:arg2="2.2129942"
       inkscape:flatsided="false"
       inkscape:rounded="0"
       inkscape:randomized="0"
       d="m 3652.7117,690.63612 -475.8229,-300.03708 -324.218,308.1183 300.0371,-475.82289 -308.1183,-324.21795 475.8229,300.03709 324.2179,-308.11831 -300.037,475.8229 z"
       transform="matrix(0.44468877,0,0,0.44468877,4078.2199,-1040.1539)"
       inkscape:transform-center-x="12.936495"
       inkscape:transform-center-y="-11.385453" />
    <path
       sodipodi:type="star"
       style="fill:#ffffff;fill-opacity:1;stroke:none"
       id="path4694-7-9-8-4-3-0-2-32-8"
       sodipodi:sides="4"
       sodipodi:cx="3248.6506"
       sodipodi:cy="294.65631"
       sodipodi:r1="565.74316"
       sodipodi:r2="119.8114"
       sodipodi:arg1="0.7752975"
       sodipodi:arg2="2.2129942"
       inkscape:flatsided="false"
       inkscape:rounded="0"
       inkscape:randomized="0"
       d="m 3652.7117,690.63612 -475.8229,-300.03708 -324.218,308.1183 300.0371,-475.82289 -308.1183,-324.21795 475.8229,300.03709 324.2179,-308.11831 -300.037,475.8229 z"
       transform="matrix(0.34402151,0,0,0.34402151,4956.6347,-567.57832)"
       inkscape:transform-center-x="10.007929"
       inkscape:transform-center-y="-8.8080539" />
    <path
       sodipodi:type="star"
       style="fill:#ffffff;fill-opacity:1;stroke:none"
       id="path4694-7-9-8-4-3-0-2-32-8-2"
       sodipodi:sides="4"
       sodipodi:cx="3248.6506"
       sodipodi:cy="294.65631"
       sodipodi:r1="565.74316"
       sodipodi:r2="119.8114"
       sodipodi:arg1="0.7752975"
       sodipodi:arg2="2.2129942"
       inkscape:flatsided="false"
       inkscape:rounded="0"
       inkscape:randomized="0"
       d="m 3652.7117,690.63612 -475.8229,-300.03708 -324.218,308.1183 300.0371,-475.82289 -308.1183,-324.21795 475.8229,300.03709 324.2179,-308.11831 -300.037,475.8229 z"
       transform="matrix(0.34402151,0,0,0.34402151,5001.8299,38.037904)"
       inkscape:transform-center-x="10.007929"
       inkscape:transform-center-y="-8.8080539" />
    <path
       sodipodi:type="star"
       style="fill:#ffffff;fill-opacity:1;stroke:none"
       id="path4694-7-9-8-4-3-0-2-32-8-20"
       sodipodi:sides="4"
       sodipodi:cx="3248.6506"
       sodipodi:cy="294.65631"
       sodipodi:r1="565.74316"
       sodipodi:r2="119.8114"
       sodipodi:arg1="0.7752975"
       sodipodi:arg2="2.2129942"
       inkscape:flatsided="false"
       inkscape:rounded="0"
       inkscape:randomized="0"
       d="m 3652.7117,690.63612 -475.8229,-300.03708 -324.218,308.1183 300.0371,-475.82289 -308.1183,-324.21795 475.8229,300.03709 324.2179,-308.11831 -300.037,475.8229 z"
       transform="matrix(0.34402151,0,0,0.34402151,4477.5651,137.46744)"
       inkscape:transform-center-x="10.007929"
       inkscape:transform-center-y="-8.8080539" />
  </g>
</svg>
